<?xml version="1.0" encoding="UTF-8" standalone="no"?>
<!-- Generated by IcoMoon.io -->

<svg
   xmlns:dc="http://purl.org/dc/elements/1.1/"
   xmlns:cc="http://creativecommons.org/ns#"
   xmlns:rdf="http://www.w3.org/1999/02/22-rdf-syntax-ns#"
   xmlns:svg="http://www.w3.org/2000/svg"
   xmlns="http://www.w3.org/2000/svg"
   xmlns:sodipodi="http://sodipodi.sourceforge.net/DTD/sodipodi-0.dtd"
   xmlns:inkscape="http://www.inkscape.org/namespaces/inkscape"
   version="1.1"
   width="512"
   height="512"
   viewBox="0 0 512 512"
   id="svg2"
   inkscape:version="0.48.5 r10040"
   sodipodi:docname="charts.svg">
  <metadata
     id="metadata11">
    <rdf:RDF>
      <cc:Work
         rdf:about="">
        <dc:format>image/svg+xml</dc:format>
        <dc:type
           rdf:resource="http://purl.org/dc/dcmitype/StillImage" />
      </cc:Work>
    </rdf:RDF>
  </metadata>
  <defs
     id="defs9" />
  <sodipodi:namedview
     pagecolor="#ffffff"
     bordercolor="#666666"
     borderopacity="1"
     objecttolerance="10"
     gridtolerance="10"
     guidetolerance="10"
     inkscape:pageopacity="0"
     inkscape:pageshadow="2"
     inkscape:window-width="708"
     inkscape:window-height="480"
     id="namedview7"
     showgrid="false"
     inkscape:zoom="0.4609375"
     inkscape:cx="256"
     inkscape:cy="197.35997"
     inkscape:window-x="0"
     inkscape:window-y="0"
     inkscape:window-maximized="0"
     inkscape:current-layer="svg2" />
  <g
     id="icomoon-ignore" />
  <path
     d="M64 448h448v64h-512v-512h64zM144 416c-26.51 0-48-21.49-48-48s21.49-48 48-48c1.414 0 2.811 0.074 4.194 0.193l51.596-85.993c-4.92-7.535-7.79-16.531-7.79-26.201 0-26.51 21.49-48 48-48s48 21.49 48 48c0 9.671-2.87 18.666-7.79 26.201l51.596 85.993c1.383-0.119 2.78-0.193 4.194-0.193 1.068 0 2.124 0.047 3.175 0.115l85.178-149.061c-5.268-7.704-8.353-17.018-8.353-27.055 0-26.51 21.49-48 48-48s48 21.49 48 48c0 26.51-21.49 48-48 48-1.070 0-2.124-0.047-3.175-0.116l-85.178 149.062c5.268 7.703 8.353 17.018 8.353 27.055 0 26.51-21.49 48-48 48s-48-21.49-48-48c0-9.67 2.87-18.666 7.789-26.201l-51.595-85.992c-1.383 0.119-2.78 0.193-4.194 0.193s-2.811-0.073-4.194-0.193l-51.596 85.993c4.92 7.534 7.79 16.53 7.79 26.2 0 26.51-21.49 48-48 48z"
     id="path5"
     style="fill:#ffffff;fill-opacity:1" />
</svg>
