<?xml version="1.0" encoding="UTF-8" standalone="no"?>
<!-- Generated by IcoMoon.io -->

<svg
   xmlns:dc="http://purl.org/dc/elements/1.1/"
   xmlns:cc="http://creativecommons.org/ns#"
   xmlns:rdf="http://www.w3.org/1999/02/22-rdf-syntax-ns#"
   xmlns:svg="http://www.w3.org/2000/svg"
   xmlns="http://www.w3.org/2000/svg"
   xmlns:sodipodi="http://sodipodi.sourceforge.net/DTD/sodipodi-0.dtd"
   xmlns:inkscape="http://www.inkscape.org/namespaces/inkscape"
   version="1.1"
   width="511.99817"
   height="352.00024"
   viewBox="0 0 511.99817 352.00024"
   id="svg2"
   inkscape:version="0.48.5 r10040"
   sodipodi:docname="expand.svg">
  <metadata
     id="metadata11">
    <rdf:RDF>
      <cc:Work
         rdf:about="">
        <dc:format>image/svg+xml</dc:format>
        <dc:type
           rdf:resource="http://purl.org/dc/dcmitype/StillImage" />
      </cc:Work>
    </rdf:RDF>
  </metadata>
  <defs
     id="defs9" />
  <sodipodi:namedview
     pagecolor="#ffffff"
     bordercolor="#666666"
     borderopacity="1"
     objecttolerance="10"
     gridtolerance="10"
     guidetolerance="10"
     inkscape:pageopacity="0"
     inkscape:pageshadow="2"
     inkscape:window-width="1366"
     inkscape:window-height="706"
     id="namedview7"
     showgrid="false"
     inkscape:zoom="0.4609375"
     inkscape:cx="-420.88315"
     inkscape:cy="96.001"
     inkscape:window-x="-8"
     inkscape:window-y="-8"
     inkscape:window-maximized="1"
     inkscape:current-layer="svg2"
     fit-margin-top="0"
     fit-margin-left="0"
     fit-margin-right="0"
     fit-margin-bottom="0" />
  <g
     id="icomoon-ignore"
     transform="translate(-0.00179376,-7.6159183e-4)" />
  <path
     d="m 352.00121,255.99924 155.322,-155.325 c 0.002,-0.002 0.004,-0.003 0.006,-0.005 1.672,-1.673002 2.881,-3.627002 3.656,-5.708002 2.123,-5.688 0.912,-12.341 -3.662,-16.915 l -73.373,-73.3729996 c -4.574,-4.57299999 -11.225,-5.783 -16.914,-3.66 -2.08,0.775 -4.035,1.984 -5.709,3.655 0,0.002 -0.002,0.003 -0.004,0.005 L 255.99921,159.99924 100.67521,4.6742384 c -0.002,-0.002 -0.003,-0.003 -0.005,-0.005 -1.673004,-1.671 -3.627004,-2.88 -5.707004,-3.655 -5.69,-2.124 -12.341,-0.91299999 -16.915,3.66 L 4.6742062,78.048238 c -4.57399996,4.574 -5.784,11.226 -3.661,16.914 0.776,2.08 1.985,4.036 3.656,5.708002 0.002,10e-4 0.003,0.003 0.005,0.005 l 155.3250038,155.324 c 96.55749,95.06569 -0.3726,-0.70872 96.001,96.001 95.06667,-96.55692 -0.71444,0.37259 96.001,-96.001 z"
     id="path5"
     style="fill:#ffffff;fill-opacity:1"
     inkscape:connector-curvature="0"
     sodipodi:nodetypes="csccscccscscccsccsccc" />
</svg>
