<?xml version="1.0" encoding="UTF-8" standalone="no"?>
<svg
   xmlns:dc="http://purl.org/dc/elements/1.1/"
   xmlns:cc="http://creativecommons.org/ns#"
   xmlns:rdf="http://www.w3.org/1999/02/22-rdf-syntax-ns#"
   xmlns:svg="http://www.w3.org/2000/svg"
   xmlns="http://www.w3.org/2000/svg"
   xmlns:sodipodi="http://sodipodi.sourceforge.net/DTD/sodipodi-0.dtd"
   xmlns:inkscape="http://www.inkscape.org/namespaces/inkscape"
   enable-background="new 0 0 80 80"
   height="39.040001"
   id="Icons"
   version="1.1"
   viewBox="0 0 39.040001 39.040001"
   width="39.040001"
   xml:space="preserve"
   inkscape:version="0.48.5 r10040"
   sodipodi:docname="search.svg"><metadata
     id="metadata9"><rdf:RDF><cc:Work
         rdf:about=""><dc:format>image/svg+xml</dc:format><dc:type
           rdf:resource="http://purl.org/dc/dcmitype/StillImage" /></cc:Work></rdf:RDF></metadata><defs
     id="defs7" /><sodipodi:namedview
     pagecolor="#ffffff"
     bordercolor="#666666"
     borderopacity="1"
     objecttolerance="10"
     gridtolerance="10"
     guidetolerance="10"
     inkscape:pageopacity="0"
     inkscape:pageshadow="2"
     inkscape:window-width="708"
     inkscape:window-height="480"
     id="namedview5"
     showgrid="false"
     fit-margin-top="0"
     fit-margin-left="0"
     fit-margin-right="0"
     fit-margin-bottom="0"
     inkscape:zoom="2.95"
     inkscape:cx="19.594"
     inkscape:cy="19.446"
     inkscape:window-x="0"
     inkscape:window-y="0"
     inkscape:window-maximized="0"
     inkscape:current-layer="Icons" /><path
     d="M 39.04,35.505 28.931,25.396 C 30.853,22.756 32,19.516 32,16 32,7.163 24.837,0 16,0 7.163,0 0,7.163 0,16 c 0,8.837 7.163,16 16,16 3.516,0 6.756,-1.147 9.396,-3.069 L 35.505,39.04 39.04,35.505 z M 16,27 C 9.935,27 5,22.065 5,16 5,9.935 9.935,5 16,5 c 6.065,0 11,4.935 11,11 0,6.065 -4.935,11 -11,11 z"
     id="path3"
     inkscape:connector-curvature="0"
     style="fill:#ffffff;fill-opacity:1" /></svg>